
    <svg width="64" height="64" viewBox="0 0 64 64" fill="none" xmlns="http://www.w3.org/2000/svg">
    <path d="M32 0C14.327 0 0 14.327 0 32C0 49.673 14.327 64 32 64C49.673 64 64 49.673 64 32C64 14.327 49.673 0 32 0ZM32 60C16.561 60 4 47.439 4 32C4 16.561 16.561 4 32 4C47.439 4 60 16.561 60 32C60 47.439 47.439 60 32 60Z" fill="url(#paint0_linear_1_2)"/>
    <path d="M44.2426 24.4854L39.5147 19.7575C38.9389 19.1817 38.0611 19.1817 37.4853 19.7575L24.4853 32.7575C24.1924 33.0504 24 33.4748 24 33.9143V40.0001H30.0858C30.5252 40.0001 30.9496 39.8077 31.2426 39.5147L44.2426 26.5147C44.8184 25.9389 44.8184 25.0612 44.2426 24.4854Z" fill="url(#paint1_linear_1_2)"/>
    <path d="M28 24H40V28H28V24Z" fill="url(#paint2_linear_1_2)"/>
    <defs>
    <linearGradient id="paint0_linear_1_2" x1="32" y1="0" x2="32" y2="64" gradientUnits="userSpaceOnUse">
    <stop stop-color="#A855F7"/>
    <stop offset="1" stop-color="#6366F1"/>
    </linearGradient>
    <linearGradient id="paint1_linear_1_2" x1="24" y1="29.5" x2="44.5" y2="29.5" gradientUnits="userSpaceOnUse">
    <stop stop-color="#D8B4FE"/>
    <stop offset="1" stop-color="#A5B4FC"/>
    </linearGradient>
    <linearGradient id="paint2_linear_1_2" x1="28" y1="26" x2="40" y2="26" gradientUnits="userSpaceOnUse">
    <stop stop-color="#D8B4FE"/>
    <stop offset="1" stop-color="#A5B4FC"/>
    </linearGradient>
    </defs>
    </svg>
  